<?xml version="1.0" ?>
<!DOCTYPE svg  PUBLIC '-//W3C//DTD SVG 1.1//EN'  'http://www.w3.org/Graphics/SVG/1.1/DTD/svg11.dtd'>
<svg enable-background="new 0 0 120 120" height="120px" id="Layer_1" version="1.1" viewBox="0 0 120 120" width="120px" xml:space="preserve"
xmlns="http://www.w3.org/2000/svg" xmlns:xlink="http://www.w3.org/1999/xlink"><g><g>
<path d="M72.499,63.502h-49c-1.381,0-2.5-1.119-2.5-2.5l0,0c0-1.38,1.119-2.499,2.5-2.499h49c1.381,0,2.5,1.119,2.5,2.499l0,0    C74.999,62.383,73.88,63.502,72.499,63.502z"/><path d="M45.499,31.103h-22c-1.381,0-2.5-1.119-2.5-2.5l0,0c0-1.381,1.119-2.5,2.5-2.5h22c1.381,0,2.5,1.119,2.5,2.5l0,0    C47.999,29.983,46.88,31.103,45.499,31.103z"/>
<path d="M72.499,47.301h-49c-1.381,0-2.5-1.119-2.5-2.5l0,0c0-1.381,1.119-2.5,2.5-2.5h49c1.381,0,2.5,1.119,2.5,2.5l0,0    C74.999,46.182,73.88,47.301,72.499,47.301z"/></g>
<path d="M66.626,110.5H14.499c-1.93,0-3.5-1.57-3.5-3.5V13c0-1.93,1.57-3.5,3.5-3.5h43.957v15.639c0,5.79,4.711,10.5,10.5,10.5   h16.043v24.572C86.149,60.076,87.315,60,88.501,60c1.184,0,2.35,0.076,3.498,0.211V33.595c0-1.876-0.738-3.58-1.939-4.837   L65.474,4.551C64.208,3.284,62.458,2.5,60.524,2.5H14.499c-5.789,0-10.5,4.71-10.5,10.5v94c0,5.789,4.711,10.5,10.5,10.5h62.029   C72.763,115.854,69.399,113.457,66.626,110.5z M65.456,14.359l14.502,14.279H68.956c-1.93,0-3.5-1.57-3.5-3.5V14.359z"/><path d="M62.708,74.701H23.499c-1.381,0-2.5,1.119-2.5,2.5s1.119,2.5,2.5,2.5h36.822C60.962,77.953,61.767,76.281,62.708,74.701z"/><path d="M58.521,90.902H23.499c-1.381,0-2.5,1.119-2.5,2.5s1.119,2.5,2.5,2.5h35.587C58.76,94.279,58.572,92.607,58.521,90.902z"/><g><g><path d="M89.628,82.516c0-1.553-1.02-2.582-3.252-2.67c-1.295,0-2.84,0.42-3.984,1.068c-0.24,0.137-0.49,0.051-0.572-0.213     l-1.244-3.988c-0.064-0.211,0.035-0.473,0.23-0.576c1.625-0.863,4.145-1.637,7.084-1.637c5.881,0,8.553,3.254,8.553,6.947     c0,3.391-2.094,5.613-3.781,7.48c-1.652,1.83-2.318,3.572-2.275,5.57v0.406c0,0.221-0.178,0.4-0.4,0.4H84.87     c-0.223,0-0.408-0.18-0.418-0.4l-0.033-0.768c-0.131-2.27,0.625-4.578,2.623-6.99C88.466,85.459,89.628,84.033,89.628,82.516z      M83.31,101.451c0-2.359,1.645-4.053,3.963-4.053c2.404,0,3.963,1.693,4.008,4.053c0,2.311-1.604,4.049-4.008,4.049     C84.911,105.5,83.31,103.762,83.31,101.451z"/></g><path d="M88.501,117.5c-15.164,0-27.502-12.336-27.502-27.5c0-15.162,12.338-27.5,27.502-27.5c15.162,0,27.5,12.338,27.5,27.5    C116.001,105.164,103.663,117.5,88.501,117.5z M88.501,69.5c-11.305,0-20.502,9.197-20.502,20.5c0,11.305,9.197,20.5,20.502,20.5    c11.303,0,20.5-9.195,20.5-20.5C109.001,78.697,99.804,69.5,88.501,69.5z"/></g></g></svg>