<?xml version="1.0" ?><!DOCTYPE svg  PUBLIC '-//W3C//DTD SVG 1.0//EN'  'http://www.w3.org/TR/2001/REC-SVG-20010904/DTD/svg10.dtd'><svg enable-background="new 0 0 16 16" height="100px" id="Layer_1" version="1.0" viewBox="0 0 16 16" width="100px" xml:space="preserve" xmlns="http://www.w3.org/2000/svg" xmlns:xlink="http://www.w3.org/1999/xlink"><g><defs><rect height="16" id="SVGID_1_" width="16"/></defs><path d="M5.04,7.461c-1.934,0-3.498,1.566-3.498,3.499c0,0.601,0.166,1.157,0.432,1.653   L0.146,14.44c-0.194,0.194-0.194,0.513,0,0.707l0.708,0.708c0.194,0.193,0.512,0.193,0.708,0l1.826-1.828   c0.494,0.268,1.05,0.434,1.654,0.433c1.934,0,3.5-1.567,3.5-3.5S6.974,7.461,5.04,7.461 M5.042,13.46   c-0.322,0-0.627-0.066-0.91-0.177c-0.647-0.255-1.16-0.769-1.414-1.414c-0.11-0.283-0.176-0.588-0.176-0.909   C2.54,9.582,3.663,8.46,5.04,8.461c1.381-0.001,2.5,1.121,2.5,2.499S6.419,13.461,5.042,13.46" fill="#1D1D1B"/><path d="M11.003,0H2.001v6h1V1h7v5h5v9h-7v1h8V4.997L11.003,0z M11.001,5V1.411   L14.589,5H11.001z" fill="#1D1D1B"/></g></svg>