<?xml version="1.0" ?><!DOCTYPE svg  PUBLIC '-//W3C//DTD SVG 1.1//EN'  'http://www.w3.org/Graphics/SVG/1.1/DTD/svg11.dtd'><svg enable-background="new 0 0 128 128" height="128px" id="Layer_1" version="1.1" viewBox="0 0 128 128" width="128px" xml:space="preserve" xmlns="http://www.w3.org/2000/svg" xmlns:xlink="http://www.w3.org/1999/xlink"><path d="M114.4,21.7l-16-16C98,5.2,97.5,5,97,5H42.5C37,5,32,9.1,32,14.6V16h4v-1.4c0-3.3,3.2-5.6,6.5-5.6H95v6.6  c0,5.5,4,9.4,9.5,9.4h6.5v74.6c0,3.3-2.2,6.4-5.5,6.4H104v4h1.5c5.5,0,9.5-4.9,9.5-10.4V23.1C115,22.6,114.8,22.1,114.4,21.7z   M104.5,21c-3.3,0-5.5-2.1-5.5-5.4v-3.7l9.2,9.1H104.5z" fill="#2C3E50"/><path d="M101.5,34.6l-16-16c-0.4-0.4-0.9-0.6-1.4-0.6H29.6C24.1,18,19,22,19,27.5v85c0,5.5,5.1,10.5,10.6,10.5h63  c5.5,0,9.4-5,9.4-10.5V36C102,35.5,101.8,35,101.5,34.6z M86,24.8l9.3,9.2h-3.7c-3.3,0-5.6-2.2-5.6-5.5V24.8z M98,112.5  c0,3.3-2.1,6.5-5.4,6.5h-63c-3.3,0-6.6-3.2-6.6-6.5v-85c0-3.3,3.3-5.5,6.6-5.5H82v6.5c0,5.5,4.1,9.5,9.6,9.5H98V112.5z" fill="#2C3E50"/></svg>