<?xml version="1.0" ?><!DOCTYPE svg  PUBLIC '-//W3C//DTD SVG 1.1//EN'  'http://www.w3.org/Graphics/SVG/1.1/DTD/svg11.dtd'><svg enable-background="new 0 0 512 512" height="512px" id="Layer_1" version="1.1" viewBox="0 0 512 512" width="512px" xml:space="preserve" xmlns="http://www.w3.org/2000/svg" xmlns:xlink="http://www.w3.org/1999/xlink"><g><path d="M320,204.328c0,2.031-1.641,3.672-3.672,3.672H99.672c-2.031,0-3.672-1.641-3.672-3.672v-8.656   c0-2.031,1.641-3.672,3.672-3.672h216.656c2.031,0,3.672,1.641,3.672,3.672V204.328z M300.328,112c2.031,0,3.672-1.641,3.672-3.672   v-8.656c0-2.031-1.641-3.672-3.672-3.672H195.672c-2.031,0-3.672,1.641-3.672,3.672v8.656c0,2.031,1.641,3.672,3.672,3.672H300.328   z M72,432c-4.422,0-8-3.578-8-8V128h48c17.672,0,32-14.328,32-32V48h200c4.422,0,8,3.578,8,8v218.656l26.195-26.203   c1.797-1.797,3.819-3.25,5.805-4.766V48c0-17.672-14.328-32-32-32H141.258c-8.492,0-16.633,3.375-22.633,9.375l-77.25,77.25   c-6,6-9.375,14.141-9.375,22.625V432c0,17.672,14.328,32,32,32h138c-1.18-4.563-2-9.219-2-14.063c0-6.22,1.227-12.203,3.156-17.938   L72,432L72,432z M320,227.672c0-2.031-1.641-3.672-3.672-3.672H99.672c-2.031,0-3.672,1.641-3.672,3.672v8.656   c0,2.031,1.641,3.672,3.672,3.672h216.656c2.031,0,3.672-1.641,3.672-3.672V227.672z M313.563,320H99.672   c-2.031,0-3.672,1.641-3.672,3.672v8.656c0,2.031,1.641,3.672,3.672,3.672h210.453C310.531,330.469,311.609,325.078,313.563,320z    M320,259.672c0-2.031-1.641-3.672-3.672-3.672H99.672c-2.031,0-3.672,1.641-3.672,3.672v8.656c0,2.031,1.641,3.672,3.672,3.672   h216.656c2.031,0,3.672-1.641,3.672-3.672V259.672z M96,355.672v8.656c0,2.031,1.641,3.672,3.672,3.672h158.977l9.828-9.828   c2.32-2.328,4.875-4.313,7.508-6.172H99.672C97.641,352,96,353.641,96,355.672z M320,300.328v-8.656   c0-2.031-1.641-3.672-3.672-3.672H99.672c-2.031,0-3.672,1.641-3.672,3.672v8.656c0,2.031,1.641,3.672,3.672,3.672h216.656   C318.359,304,320,302.359,320,300.328z M470.57,340.844l-52.017,52.016c-12.569,12.563-32.93,12.563-45.5,0l-5.233-5.233   l-12.195,12.203l5.234,5.219c12.569,12.578,12.563,32.922,0,45.484l-52.023,52.047c-12.57,12.563-32.922,12.563-45.5,0   l-29.906-29.938c-12.57-12.53-12.57-32.922,0-45.483l52.015-52.017c12.563-12.563,32.931-12.563,45.501,0l5.241,5.234   l12.188-12.203l-5.234-5.219c-12.569-12.563-12.569-32.938,0-45.5l52.023-52.031c12.57-12.563,32.938-12.563,45.5,0l29.914,29.922   C483.141,307.906,483.141,328.266,470.57,340.844z M341.359,424.547l-5.234-5.219l-13.289,13.281c-3.57,3.563-9.375,3.563-12.961,0   l-6.484-6.484c-3.57-3.578-3.57-9.375,0-12.969l13.289-13.267l-5.233-5.249c-1.797-1.781-4.703-1.781-6.501,0L252.93,446.64   c-1.797,1.828-1.797,4.72,0,6.5l29.906,29.938c1.797,1.781,4.719,1.781,6.5,0l52.023-52.047   C343.148,429.266,343.148,426.359,341.359,424.547z M451.07,314.844l-29.906-29.922c-1.789-1.781-4.711-1.781-6.5,0l-52.023,52.031   c-1.78,1.797-1.78,4.688,0,6.5l5.242,5.219l13.289-13.281c3.578-3.563,9.383-3.563,12.953,0l6.484,6.484   c3.586,3.594,3.586,9.375,0,12.969l-13.289,13.281l5.242,5.234c1.797,1.797,4.702,1.797,6.491,0l52.017-52.017   C452.875,319.547,452.875,316.641,451.07,314.844z" fill="#4D4D4D"/></g></svg>