<?xml version="1.0" ?><!DOCTYPE svg  PUBLIC '-//W3C//DTD SVG 1.1//EN'  'http://www.w3.org/Graphics/SVG/1.1/DTD/svg11.dtd'><svg enable-background="new 0 0 1417.32 1417.32" height="1417.32px" id="Layer_1" version="1.1" viewBox="0 0 1417.32 1417.32" width="1417.32px" xml:space="preserve" xmlns="http://www.w3.org/2000/svg" xmlns:xlink="http://www.w3.org/1999/xlink"><path d="M829.298,920.249c0-16.263,0-30.951,0-47.632c5.478,0,10.723,0,15.973,0c93.276,0,186.559,0.392,279.84-0.103  c114.493-0.604,203.38-91.796,200.198-204.563c-3.012-106.937-90.612-189.686-201.994-190.761  c-12.299-0.119-24.59-0.018-38.162-0.018c0-20.51,0-39.724,0-58.936c-0.028-143.095-106.707-266.373-248.33-286.965  c-140.173-20.379-261.608,43.739-323.945,171.042c-5.207,10.629-10.428,21.252-16.307,33.227  c-12.126-5.893-23.734-11.137-34.977-17.068c-88.956-46.955-180.574,12.838-194.812,100.067  c-3.003,18.406-9.623,27.002-27.831,33.111C142.835,483.892,85.059,564.719,87.85,659.733  c3.34,113.808,96.523,209.202,210.388,212.069c86.775,2.183,173.641,0.68,260.466,0.812c5.904,0.008,11.812,0,18.792,0  c0,15.759,0,30.805,0,46.844c-3.782,0.261-7.588,0.75-11.396,0.753c-88.319,0.044-176.638,0.41-264.954-0.056  C166.63,919.452,50.442,810.716,40.206,676.602C31.438,561.734,96.4,458.41,205.291,415.145c10.242-4.073,15.283-9.152,18.06-20.086  c25.412-99.959,132.805-171.111,244.531-122.816c1.765,0.762,3.604,1.358,4.872,1.831  C569.524,114.451,706.492,47.829,889.612,97.165c124.528,33.556,247.842,160.32,244.522,334.249  c18.948,3.046,38.225,4.748,56.789,9.315c108.859,26.792,184.215,125.791,182.221,238.391  c-1.994,112.586-81.752,211.699-189.983,234.975c-17.786,3.823-36.305,5.78-54.504,5.885  C1029.444,920.543,930.227,920.249,829.298,920.249z"/><path d="M681.954,518.922c17.563,0,32.283,0,48.244,0c0,238.908,0,477.253,0,720.683c56.453-55.375,109.76-107.659,162.811-159.701  c11.431,11.845,21.99,22.775,29.904,30.971c-69.786,72.901-140.709,147.001-213.326,222.857  c-76.471-75.376-150.045-147.897-223.371-220.175c11.195-11.823,21.65-22.867,34.428-36.366  c52.069,55.017,103.364,109.22,154.662,163.418c2.215-1.616,4.434-3.235,6.649-4.854  C681.954,997.265,681.954,758.769,681.954,518.922z"/></svg>