<?xml version="1.0" ?><svg contentScriptType="text/ecmascript" contentStyleType="text/css" height="60.000000px" preserveAspectRatio="xMidYMid meet" version="1.0" viewBox="0 0 60.000000 60.000000" width="60.000000px" xmlns="http://www.w3.org/2000/svg" xmlns:xlink="http://www.w3.org/1999/xlink" zoomAndPan="magnify"><g><path d="M 49.0 20.0 c 6.151 4.447 10.0 9.0 10.0 9.0 s -12.983 15.978 -29.0 15.978 c -2.619 0.0 -5.588 -0.246 -8.0 -0.978" fill="none" stroke="#231F20" stroke-linecap="round" stroke-linejoin="round" stroke-miterlimit="10" stroke-width="2"/><path d="M 11.005005 37.920013 c -6.158 -4.46 -6.101 -3.99 -10.005 -8.92 c 0.0 0.0 12.983 -17.0 29.0 -17.0 c 2.169 0.0 3.967 0.48 6.0 1.0" fill="none" stroke="#231F20" stroke-linecap="round" stroke-linejoin="round" stroke-miterlimit="10" stroke-width="2"/><path d="M 20.0 29.0 c 0.0 -5.57 4.43 -10.0 10.0 -10.0" fill="none" stroke="#231F20" stroke-linecap="round" stroke-linejoin="round" stroke-miterlimit="10" stroke-width="2"/><path d="M 40.0 28.0 c 0.0 5.571 -4.43 10.0 -10.0 10.0" fill="none" stroke="#231F20" stroke-linecap="round" stroke-linejoin="round" stroke-miterlimit="10" stroke-width="2"/><line fill="none" stroke="#231F20" stroke-linecap="round" stroke-linejoin="round" stroke-miterlimit="10" stroke-width="2" x1="54.0" x2="6.0" y1="4.0" y2="53.0"/></g></svg>