<?xml version="1.0" ?><!DOCTYPE svg  PUBLIC '-//W3C//DTD SVG 1.1//EN'  'http://www.w3.org/Graphics/SVG/1.1/DTD/svg11.dtd'><svg enable-background="new 0 0 100 100" id="Your_Icon" version="1.1" viewBox="0 0 100 100" xml:space="preserve" xmlns="http://www.w3.org/2000/svg" xmlns:xlink="http://www.w3.org/1999/xlink"><g><g><path d="M-3173.4,76.7c-0.9,0-1.6-0.5-1.9-1.4c-0.3-1.1,0.3-2.2,1.3-2.5l18.2-5.7c1.1-0.3,2.2,0.3,2.5,1.3    c0.3,1.1-0.3,2.2-1.3,2.5l-18.2,5.7C-3173,76.6-3173.2,76.7-3173.4,76.7z"/></g><g><path d="M-3195.6,76.7c-0.2,0-0.4,0-0.6-0.1l-18.2-5.7c-1.1-0.3-1.6-1.5-1.3-2.5c0.3-1.1,1.5-1.6,2.5-1.3l18.2,5.7    c1.1,0.3,1.6,1.5,1.3,2.5C-3194,76.1-3194.7,76.7-3195.6,76.7z"/></g></g><g><g><path d="M-3173.4,65.2c-0.9,0-1.6-0.5-1.9-1.4c-0.3-1.1,0.3-2.2,1.3-2.5l18.2-5.7c1.1-0.3,2.2,0.3,2.5,1.3    c0.3,1.1-0.3,2.2-1.3,2.5l-18.2,5.7C-3173,65.2-3173.2,65.2-3173.4,65.2z"/></g><g><path d="M-3195.6,65.2c-0.2,0-0.4,0-0.6-0.1l-18.2-5.7c-1.1-0.3-1.6-1.5-1.3-2.5c0.3-1.1,1.5-1.6,2.5-1.3l18.2,5.7    c1.1,0.3,1.6,1.5,1.3,2.5C-3194,64.6-3194.7,65.2-3195.6,65.2z"/></g></g><g><g><path d="M-3173.4,53.7c-0.9,0-1.6-0.5-1.9-1.4c-0.3-1.1,0.3-2.2,1.3-2.5l18.2-5.7c1.1-0.3,2.2,0.3,2.5,1.3    c0.3,1.1-0.3,2.2-1.3,2.5l-18.2,5.7C-3173,53.7-3173.2,53.7-3173.4,53.7z"/></g><g><path d="M-3195.6,53.7c-0.2,0-0.4,0-0.6-0.1l-18.2-5.7c-1.1-0.3-1.6-1.5-1.3-2.5c0.3-1.1,1.5-1.6,2.5-1.3l18.2,5.7    c1.1,0.3,1.6,1.5,1.3,2.5C-3194,53.2-3194.7,53.7-3195.6,53.7z"/></g></g><g><g><path d="M-3173.4,42.2c-0.9,0-1.6-0.5-1.9-1.4c-0.3-1.1,0.3-2.2,1.3-2.5l18.2-5.7c1.1-0.3,2.2,0.3,2.5,1.3    c0.3,1.1-0.3,2.2-1.3,2.5l-18.2,5.7C-3173,42.2-3173.2,42.2-3173.4,42.2z"/></g><g><path d="M-3195.6,42.2c-0.2,0-0.4,0-0.6-0.1l-18.2-5.7c-1.1-0.3-1.6-1.5-1.3-2.5c0.3-1.1,1.5-1.6,2.5-1.3l18.2,5.7    c1.1,0.3,1.6,1.5,1.3,2.5C-3194,41.7-3194.7,42.2-3195.6,42.2z"/></g></g><g><path d="M-3141.9,10c-0.8-0.6-1.8-0.7-2.7-0.4l-39.6,12.4l-39.6-12.4c-0.9-0.3-1.9-0.1-2.7,0.4c-0.8,0.6-1.2,1.5-1.2,2.4v69.8   c0,1.3,0.9,2.5,2.1,2.9l40.5,12.6c0.1,0,0.1,0,0.2,0c0.1,0,0.1,0,0.2,0c0.1,0,0.1,0,0.2,0c0.1,0,0.2,0,0.3,0s0.2,0,0.3,0   c0.1,0,0.1,0,0.2,0c0.1,0,0.1,0,0.1,0c0.1,0,0.1,0,0.2-0.1l40.5-12.6c1.2-0.4,2.1-1.6,2.1-2.9V12.4   C-3140.7,11.4-3141.1,10.6-3141.9,10z M-3221.6,16.5l34.5,10.8v63.5l-34.5-10.8V16.5z M-3146.7,80l-34.5,10.8V27.2l34.5-10.8V80z"/></g><g><g><path d="M65.8,5.3c0.1,0.1,0.2,0.1,0.2,0.2v0C66,5.4,65.9,5.3,65.8,5.3z" fill="#010101"/><path d="M85.8,25.5c0-0.1,0-0.1-0.1-0.2c-0.1-0.2-0.2-0.4-0.3-0.5L66.1,5.5c-0.1-0.1-0.1-0.1-0.2-0.2    c-0.1-0.1-0.2-0.1-0.3-0.1c-0.1,0-0.1-0.1-0.2-0.1C65.2,5,65.1,5,64.9,5H15.7c-0.9,0-1.6,0.7-1.6,1.6v86.8c0,0.9,0.7,1.6,1.6,1.6    h68.6c0.9,0,1.6-0.7,1.6-1.6V25.9C85.9,25.8,85.9,25.7,85.8,25.5z M66.5,10.4l13.9,13.9H66.5V10.4z M82.7,91.8H17.3V8.2h46v17.8    c0,0.9,0.7,1.6,1.6,1.6h17.8V91.8z" fill="#010101"/></g></g><g><g><path d="M65.7,58.1c-0.7-1.3-2.1-1.9-4.5-1.9c-1.2,0-2.6,0.1-4.1,0.4c-2.2-2.4-4.5-5.8-6.2-9.2    c1.8-7.5,0.5-9.2,0-9.8c-0.6-0.7-1.4-1.1-2.3-1.1c-0.4,0-0.7,0.1-1.1,0.2c-1,0.3-1.7,1-2.1,2c-0.8,1.9-0.3,5,1.6,9.1    c-1.1,4.3-2.9,9.3-4.8,13.5c-5.2,2.4-7.8,4.7-8.1,7.2c-0.1,0.8,0,2.3,1.8,3.7c0.5,0.4,1.1,0.6,1.7,0.6c1.4,0,2.8-1,4.3-3.1    c1-1.4,2-3.2,3.1-5.5c3.3-1.4,7.3-2.7,10.8-3.5c2.1,2,4.1,2.9,5.8,2.9c1.4,0,2.7-0.7,3.5-1.9C66.3,60.1,66.1,58.9,65.7,58.1z     M37.6,69.8C37,69.3,37,69,37,68.9c0.1-0.7,1.2-2,4-3.6C38.9,69.2,37.8,69.7,37.6,69.8z M48.1,39.9c0.1-0.2,0.2-0.3,0.3-0.3    c0.1,0,0.1,0,0.1,0c0.2,0.3,0.4,1.5,0,4.3C48,42.2,47.7,40.7,48.1,39.9z M45.7,60.7c1.3-3.2,2.6-6.7,3.5-10c1.5,2.7,3.3,5.2,5,7.3    C51.4,58.7,48.4,59.6,45.7,60.7z M62.7,60c-0.4,0.6-0.8,0.6-1.1,0.6c-0.7,0-1.7-0.5-2.7-1.3c0.9-0.1,1.7-0.2,2.3-0.2    c1.2,0,1.6,0.2,1.8,0.3C62.9,59.6,62.9,59.8,62.7,60z" fill="#010101"/></g></g></svg>